<svg xmlns="http://www.w3.org/2000/svg" xmlns:xlink="http://www.w3.org/1999/xlink" width="6912" zoomAndPan="magnify" viewBox="0 0 5184 1799.999925" height="2400" preserveAspectRatio="xMidYMid meet" version="1.0"><defs><g/><clipPath id="0580a3c85c"><path d="M 3756.617188 372.019531 L 5078.566406 372.019531 L 5078.566406 1427.980469 L 3756.617188 1427.980469 Z M 3756.617188 372.019531 " clip-rule="nonzero"/></clipPath><clipPath id="5486d7ee4a"><path d="M 75 93 L 1331 93 L 1331 1710.574219 L 75 1710.574219 Z M 75 93 " clip-rule="nonzero"/></clipPath></defs><g clip-path="url(#0580a3c85c)"><path fill="#f1b6ac" d="M 3756.617188 372.019531 L 5078.707031 372.019531 L 5078.707031 1427.949219 L 3756.617188 1427.949219 Z M 3756.617188 372.019531 " fill-opacity="1" fill-rule="nonzero"/></g><g clip-path="url(#5486d7ee4a)"><path fill="#f1b6ac" d="M 701.328125 1642.914062 L 703.3125 1642.972656 C 835.191406 1647.007812 960.261719 1610.132812 1065.027344 1536.34375 C 1178.347656 1456.515625 1282.464844 1288.199219 1259.617188 1092.097656 C 1245.183594 968.289062 1210.671875 895.074219 1152.023438 803.273438 C 1094.296875 712.914062 1040.394531 625.605469 1015.136719 550.679688 C 989.03125 473.242188 980.558594 409.375 973.753906 358.050781 C 962.589844 273.875 956.4375 227.511719 888.144531 185.277344 C 821.335938 143.964844 714.082031 155.816406 601.25 216.960938 C 396.453125 327.953125 153.625 616.1875 143.257812 1063.246094 C 136.957031 1335.085938 280.019531 1630 700.359375 1642.941406 Z M 722.867188 1710.617188 C 715.691406 1710.617188 708.53125 1710.515625 701.324219 1710.285156 L 700.375 1710.316406 L 699.363281 1710.285156 C 593.359375 1707.144531 497.71875 1686.878906 415.113281 1650.058594 C 337.378906 1615.425781 271.117188 1566.214844 218.152344 1503.78125 C 168.679688 1445.472656 131.367188 1376.378906 107.246094 1298.421875 C 84.507812 1224.9375 73.960938 1145.285156 75.898438 1061.683594 L 109.578125 1062.460938 L 75.898438 1061.683594 C 78.433594 952.394531 94.613281 846.160156 123.984375 745.921875 C 150.976562 653.820312 189.085938 566.65625 237.265625 486.863281 C 323.628906 343.816406 441.492188 226.9375 569.136719 157.757812 C 633.613281 122.820312 699.210938 101.238281 758.839844 95.359375 C 822 89.132812 878.972656 100.421875 923.59375 128.007812 C 1019.035156 187.023438 1028.53125 258.589844 1040.546875 349.203125 C 1047.300781 400.160156 1054.96875 457.921875 1078.980469 529.171875 C 1101.792969 596.835938 1155.625 683.773438 1208.8125 767.023438 C 1271.363281 864.941406 1310.679688 948.253906 1326.539062 1084.304688 C 1352.589844 1307.882812 1233.460938 1500.085938 1103.839844 1591.394531 C 992.804688 1669.59375 861.492188 1710.617188 722.867188 1710.617188 " fill-opacity="1" fill-rule="nonzero"/></g><path fill="#f1b6ac" d="M 662.15625 1217.007812 C 654.496094 1238.679688 627.699219 1246.660156 609.707031 1232.351562 C 593.855469 1219.746094 580.953125 1203.605469 571.957031 1184.800781 C 556.359375 1152.171875 554.410156 1115.425781 566.460938 1081.324219 C 574.453125 1058.699219 588.8125 1037.488281 607.171875 1020.355469 C 623.523438 1005.097656 649.871094 1009.445312 660.195312 1029.28125 C 667.242188 1042.816406 664.15625 1059.265625 653 1069.6875 C 642.5625 1079.445312 634.355469 1091.398438 629.992188 1103.757812 C 623.929688 1120.898438 624.910156 1139.367188 632.75 1155.761719 C 637.210938 1165.09375 643.589844 1173.117188 651.417969 1179.417969 C 662.589844 1188.410156 666.960938 1203.410156 662.179688 1216.933594 L 662.15625 1217.007812 " fill-opacity="1" fill-rule="nonzero"/><path fill="#f1b6ac" d="M 702.585938 877.261719 C 577.671875 877.261719 480.78125 1014.980469 480.78125 1133.449219 C 480.78125 1255.695312 580.285156 1355.152344 702.585938 1355.152344 C 824.882812 1355.152344 924.382812 1255.695312 924.382812 1133.449219 C 924.382812 1014.980469 827.496094 877.261719 702.585938 877.261719 Z M 702.585938 1422.5 C 543.128906 1422.5 413.40625 1292.832031 413.40625 1133.449219 C 413.40625 1056.3125 443.570312 976.300781 496.164062 913.925781 C 522.84375 882.28125 553.539062 857.167969 587.386719 839.273438 C 624.25 819.789062 663.007812 809.914062 702.585938 809.914062 C 742.15625 809.914062 780.917969 819.789062 817.773438 839.273438 C 851.628906 857.167969 882.320312 882.28125 908.996094 913.925781 C 961.59375 976.300781 991.757812 1056.3125 991.757812 1133.449219 C 991.757812 1292.832031 862.035156 1422.5 702.585938 1422.5 " fill-opacity="1" fill-rule="nonzero"/><path fill="#f1b6ac" d="M 317.785156 736.660156 L 313.601562 735.171875 C 296.761719 729.175781 288.351562 710.40625 294.953125 693.796875 C 362.539062 523.625 461.476562 425.605469 509.332031 385.503906 C 523.695312 373.464844 545.355469 376.652344 555.722656 392.265625 L 558.195312 395.964844 C 567.097656 409.300781 564.546875 427.171875 552.292969 437.503906 C 537.117188 450.296875 515.378906 470.335938 491.011719 498.058594 C 451.984375 542.464844 398.652344 615.5625 357.632812 718.527344 C 351.351562 734.300781 333.78125 742.351562 317.785156 736.660156 " fill-opacity="1" fill-rule="nonzero"/><g fill="#f1b6ac" fill-opacity="1"><g transform="translate(1426.964749, 1233.461888)"><g><path d="M 204.0625 0 L 82.484375 0 L 82.484375 -634.734375 L 226.203125 -634.734375 L 481.0625 -225.765625 L 492.34375 -227.5 L 492.34375 -634.734375 L 613.03125 -634.734375 L 613.03125 0 L 484.53125 0 L 214.90625 -436.765625 L 204.0625 -435.03125 Z M 204.0625 0 "/></g></g></g><g fill="#f1b6ac" fill-opacity="1"><g transform="translate(2122.91196, 1233.461888)"><g><path d="M 219.25 9.125 C 165.414062 9.125 125.691406 -5.5625 100.078125 -34.9375 C 74.460938 -64.320312 61.65625 -106.515625 61.65625 -161.515625 L 61.65625 -478.890625 L 181.921875 -478.890625 L 181.921875 -176.703125 C 181.921875 -147.472656 188.210938 -126.128906 200.796875 -112.671875 C 213.390625 -99.210938 232.859375 -92.484375 259.203125 -92.484375 C 292.484375 -92.484375 318.382812 -103.40625 336.90625 -125.25 C 355.4375 -147.101562 364.703125 -181.476562 364.703125 -228.375 L 364.703125 -478.890625 L 484.96875 -478.890625 L 484.96875 0 L 369.46875 0 L 369.46875 -70.328125 L 360.359375 -72.5 C 345.015625 -45.007812 326.269531 -24.53125 304.125 -11.0625 C 281.988281 2.394531 253.695312 9.125 219.25 9.125 Z M 219.25 9.125 "/></g></g></g><g fill="#f1b6ac" fill-opacity="1"><g transform="translate(2676.89105, 1233.461888)"><g><path d="M 330.40625 -114.1875 L 361.65625 -25.1875 C 348.632812 -14.476562 332.28125 -6.082031 312.59375 0 C 292.914062 6.082031 270.628906 9.125 245.734375 9.125 C 193.921875 9.125 154.554688 -4.984375 127.640625 -33.203125 C 100.722656 -61.429688 87.265625 -102.460938 87.265625 -156.296875 L 87.265625 -383.796875 L 14.328125 -383.796875 L 14.328125 -479.3125 L 87.265625 -479.3125 L 87.265625 -572.65625 L 207.53125 -592.1875 L 207.53125 -479.3125 L 343.421875 -479.3125 L 343.421875 -383.796875 L 207.53125 -383.796875 L 207.53125 -164.984375 C 207.53125 -141.242188 212.445312 -123.945312 222.28125 -113.09375 C 232.125 -102.238281 246.457031 -96.8125 265.28125 -96.8125 C 286.695312 -96.8125 305.363281 -102.601562 321.28125 -114.1875 Z M 330.40625 -114.1875 "/></g></g></g><g fill="#f1b6ac" fill-opacity="1"><g transform="translate(3048.960193, 1233.461888)"><g><path d="M 69.03125 0 L 69.03125 -478.890625 L 185.828125 -478.890625 L 185.828125 -407.6875 L 194.9375 -405.9375 C 206.519531 -432.570312 221.71875 -452.113281 240.53125 -464.5625 C 259.34375 -477.007812 282.207031 -483.234375 309.125 -483.234375 C 336.332031 -483.234375 357.03125 -478.597656 371.21875 -469.328125 L 350.8125 -365.5625 L 341.6875 -363.828125 C 333.875 -367.015625 326.347656 -369.332031 319.109375 -370.78125 C 311.878906 -372.226562 303.050781 -372.953125 292.625 -372.953125 C 259.050781 -372.953125 233.4375 -361.15625 215.78125 -337.5625 C 198.125 -313.96875 189.296875 -276.125 189.296875 -224.03125 L 189.296875 0 Z M 69.03125 0 "/></g></g></g><g fill="#f1b6ac" fill-opacity="1"><g transform="translate(3424.502559, 1233.461888)"><g><path d="M 128.953125 -536.171875 C 107.242188 -536.171875 89.585938 -542.753906 75.984375 -555.921875 C 62.378906 -569.097656 55.578125 -586.109375 55.578125 -606.953125 C 55.578125 -627.503906 62.378906 -644.363281 75.984375 -657.53125 C 89.585938 -670.695312 107.242188 -677.28125 128.953125 -677.28125 C 143.421875 -677.28125 156.296875 -674.238281 167.578125 -668.15625 C 178.867188 -662.082031 187.625 -653.765625 193.84375 -643.203125 C 200.070312 -632.640625 203.1875 -620.554688 203.1875 -606.953125 C 203.1875 -593.347656 200.070312 -581.191406 193.84375 -570.484375 C 187.625 -559.773438 178.867188 -551.378906 167.578125 -545.296875 C 156.296875 -539.210938 143.421875 -536.171875 128.953125 -536.171875 Z M 69.03125 0 L 69.03125 -478.890625 L 189.296875 -478.890625 L 189.296875 0 Z M 69.03125 0 "/></g></g></g><g fill="#ffffff" fill-opacity="1"><g transform="translate(3899.157202, 1238.654457)"><g><path d="M 491.9375 0 L 26.046875 0 L 26.046875 -110.71875 L 344.3125 -520.609375 L 341.28125 -529.71875 L 38.640625 -529.71875 L 38.640625 -634.796875 L 488.90625 -634.796875 L 488.90625 -524.078125 L 170.640625 -114.1875 L 173.671875 -105.078125 L 491.9375 -105.078125 Z M 491.9375 0 "/></g></g><g transform="translate(4417.585198, 1238.654457)"><g><path d="M 491.9375 0 L 26.046875 0 L 26.046875 -110.71875 L 344.3125 -520.609375 L 341.28125 -529.71875 L 38.640625 -529.71875 L 38.640625 -634.796875 L 488.90625 -634.796875 L 488.90625 -524.078125 L 170.640625 -114.1875 L 173.671875 -105.078125 L 491.9375 -105.078125 Z M 491.9375 0 "/></g></g></g></svg>